<mxfile host="app.diagrams.net" agent="Mozilla/5.0 (X11; Linux x86_64; rv:134.0) Gecko/20100101 Firefox/134.0" version="26.1.1">
  <diagram name="Page-1" id="XKcA_pU5f5cIYYNXXlob">
    <mxGraphModel dx="2284" dy="907" grid="1" gridSize="10" guides="1" tooltips="1" connect="1" arrows="1" fold="1" page="1" pageScale="1" pageWidth="850" pageHeight="1100" math="0" shadow="0">
      <root>
        <mxCell id="0" />
        <mxCell id="1" parent="0" />
        <mxCell id="rL8FLx0YOvqRTXdkRjL6-5" style="edgeStyle=orthogonalEdgeStyle;rounded=0;orthogonalLoop=1;jettySize=auto;html=1;entryX=0;entryY=0.5;entryDx=0;entryDy=0;" edge="1" parent="1" source="wsi-DFMHmE7BhEvAm292-2" target="rL8FLx0YOvqRTXdkRjL6-3">
          <mxGeometry relative="1" as="geometry" />
        </mxCell>
        <mxCell id="wsi-DFMHmE7BhEvAm292-2" value="Aerial Time-lapse Images" style="verticalLabelPosition=bottom;verticalAlign=top;html=1;shape=mxgraph.basic.x" parent="1" vertex="1">
          <mxGeometry x="10" y="70" width="100" height="100" as="geometry" />
        </mxCell>
        <mxCell id="wsi-DFMHmE7BhEvAm292-20" value="&lt;div&gt;Phenotype Measurements &lt;br&gt;&lt;/div&gt;&lt;div&gt;with CV tools&lt;/div&gt;" style="ellipse;whiteSpace=wrap;html=1;fillColor=#e1d5e7;strokeColor=#9673a6;" parent="1" vertex="1">
          <mxGeometry x="1130" y="80" width="120" height="80" as="geometry" />
        </mxCell>
        <mxCell id="wsi-DFMHmE7BhEvAm292-23" style="edgeStyle=orthogonalEdgeStyle;rounded=0;orthogonalLoop=1;jettySize=auto;html=1;entryX=0;entryY=0.5;entryDx=0;entryDy=0;" parent="1" source="wsi-DFMHmE7BhEvAm292-21" target="wsi-DFMHmE7BhEvAm292-20" edge="1">
          <mxGeometry relative="1" as="geometry" />
        </mxCell>
        <mxCell id="wsi-DFMHmE7BhEvAm292-21" value="&lt;div&gt;Multiclass &lt;br&gt;&lt;/div&gt;&lt;div&gt;Masks&lt;/div&gt;" style="shape=cylinder3;whiteSpace=wrap;html=1;boundedLbl=1;backgroundOutline=1;size=15;" parent="1" vertex="1">
          <mxGeometry x="1000" y="80" width="60" height="80" as="geometry" />
        </mxCell>
        <mxCell id="wsi-DFMHmE7BhEvAm292-22" style="edgeStyle=orthogonalEdgeStyle;rounded=0;orthogonalLoop=1;jettySize=auto;html=1;entryX=0;entryY=0.5;entryDx=0;entryDy=0;entryPerimeter=0;" parent="1" target="wsi-DFMHmE7BhEvAm292-21" edge="1">
          <mxGeometry relative="1" as="geometry">
            <mxPoint x="935" y="120" as="sourcePoint" />
          </mxGeometry>
        </mxCell>
        <mxCell id="rL8FLx0YOvqRTXdkRjL6-2" value="SAM2 Video Predictor" style="rounded=1;whiteSpace=wrap;html=1;fillColor=#dae8fc;strokeColor=#6c8ebf;" vertex="1" parent="1">
          <mxGeometry x="650" y="40" width="290" height="160" as="geometry" />
        </mxCell>
        <mxCell id="rL8FLx0YOvqRTXdkRjL6-3" value="Single Annotation using Image Annotator" style="rounded=0;whiteSpace=wrap;html=1;fillColor=#d5e8d4;strokeColor=#82b366;" vertex="1" parent="1">
          <mxGeometry x="190" y="65" width="260" height="110" as="geometry" />
        </mxCell>
        <mxCell id="rL8FLx0YOvqRTXdkRjL6-7" style="edgeStyle=orthogonalEdgeStyle;rounded=0;orthogonalLoop=1;jettySize=auto;html=1;entryX=0;entryY=0.5;entryDx=0;entryDy=0;" edge="1" parent="1" source="rL8FLx0YOvqRTXdkRjL6-4" target="rL8FLx0YOvqRTXdkRjL6-2">
          <mxGeometry relative="1" as="geometry" />
        </mxCell>
        <mxCell id="rL8FLx0YOvqRTXdkRjL6-4" value="" style="shape=cylinder3;whiteSpace=wrap;html=1;boundedLbl=1;backgroundOutline=1;size=15;" vertex="1" parent="1">
          <mxGeometry x="520" y="80" width="60" height="80" as="geometry" />
        </mxCell>
        <mxCell id="rL8FLx0YOvqRTXdkRjL6-6" style="edgeStyle=orthogonalEdgeStyle;rounded=0;orthogonalLoop=1;jettySize=auto;html=1;entryX=0;entryY=0.5;entryDx=0;entryDy=0;entryPerimeter=0;" edge="1" parent="1" source="rL8FLx0YOvqRTXdkRjL6-3" target="rL8FLx0YOvqRTXdkRjL6-4">
          <mxGeometry relative="1" as="geometry" />
        </mxCell>
        <mxCell id="rL8FLx0YOvqRTXdkRjL6-8" value="Images with conditional frame" style="text;html=1;align=center;verticalAlign=middle;whiteSpace=wrap;rounded=0;" vertex="1" parent="1">
          <mxGeometry x="520" y="180" width="60" height="30" as="geometry" />
        </mxCell>
      </root>
    </mxGraphModel>
  </diagram>
</mxfile>
